# xmcd CD database file
#
# Track frame offsets:
#	150
#	20069
#	41427
#	59773
#	79428
#	92139
#	104429
#	120426
#	143306
#	159810
#
# Disc length: 2400 seconds
#
# Revision: 0
# Processed by: cddbd v1.5.1PL0 Copyright (c) Steve Scherf et al.
# Submitted via: CDex 1.51
#
DISCID=7b095e0a
DTITLE=Emilia Dahlin - Emilia Dahlin
DYEAR=2004
DGENRE=Blues
TTITLE0=6 Acre Lot
TTITLE1=Bound To Be
TTITLE2=Blackwater
TTITLE3=Countin On You
TTITLE4=Infatuated
TTITLE5=No End
TTITLE6=August On Exchange
TTITLE7=Song Given Back
TTITLE8=Sleep Tight Willy
TTITLE9=Goodbye Song
EXTD=YEAR: 2004
EXTT0=
EXTT1=
EXTT2=
EXTT3=
EXTT4=
EXTT5=
EXTT6=
EXTT7=
EXTT8=
EXTT9=
PLAYORDER=
